/* XPM */
static char *killbots[] = {
/* columns rows colors chars-per-pixel */
"32 32 210 2 ",
"   c #171A1B",
".  c #1E2021",
"X  c #242626",
"o  c #37372E",
"O  c #3B392D",
"+  c #2E3436",
"@  c #5C0300",
"#  c #650100",
"$  c #6F0000",
"%  c #630800",
"&  c #680A00",
"*  c #4E2700",
"=  c #522A00",
"-  c #5F3C10",
";  c #6A3600",
":  c #663800",
">  c #6C3C00",
",  c #673F08",
"<  c #613E10",
"1  c #463B27",
"2  c #4F3F23",
"3  c #433B29",
"4  c #5E4117",
"5  c #57411D",
"6  c #5F481D",
"7  c #6F4307",
"8  c #6B430A",
"9  c #744301",
"0  c #784600",
"q  c #7C4901",
"w  c #714609",
"e  c #734A0B",
"r  c #79510F",
"t  c #7B5A0B",
"y  c #634113",
"u  c #684D13",
"i  c #614A1E",
"p  c #704D17",
"a  c #695015",
"s  c #7C5617",
"d  c #795D14",
"f  c #7C581B",
"g  c #7B681C",
"h  c #4F4125",
"j  c #514624",
"k  c #514B2A",
"l  c #5F5627",
"z  c #594F3A",
"x  c #615727",
"c  c #635826",
"v  c #4C4E4B",
"b  c #535144",
"n  c #8B0101",
"m  c #8B0801",
"M  c #950F00",
"N  c #9E0A02",
"B  c #9E1C02",
"V  c #A20202",
"C  c #AF0202",
"Z  c #A70C04",
"A  c #AD0A04",
"S  c #B40303",
"D  c #BD0302",
"F  c #B40C06",
"G  c #9F2100",
"H  c #823E00",
"J  c #BB2400",
"K  c #C80000",
"L  c #CE0A0A",
"P  c #D30404",
"I  c #D90A0A",
"U  c #844E00",
"Y  c #855102",
"T  c #8C5400",
"R  c #8F5B07",
"E  c #875608",
"W  c #805D0A",
"Q  c #8A5D0F",
"!  c #905700",
"~  c #9A5200",
"^  c #955C00",
"/  c #9A5F00",
"(  c #925F08",
")  c #855E1E",
"_  c #AD4B00",
"`  c #A65000",
"'  c #AB5700",
"]  c #A45B00",
"[  c #AA5E00",
"{  c #BA5402",
"}  c #976006",
"|  c #9D6302",
" . c #976E04",
".. c #94640C",
"X. c #9C6608",
"o. c #826E1A",
"O. c #85741E",
"+. c #88761D",
"@. c #A46600",
"#. c #AA6300",
"$. c #A66800",
"%. c #AC6D00",
"&. c #B46500",
"*. c #B96300",
"=. c #A07603",
"-. c #AD7002",
";. c #AE740B",
":. c #A17809",
">. c #B37200",
",. c #B87500",
"<. c #BF7A00",
"1. c #BE6A18",
"2. c #A87615",
"3. c #B27B1B",
"4. c #8F6A21",
"5. c #906C23",
"6. c #8D7927",
"7. c #8D7928",
"8. c #927D20",
"9. c #95793D",
"0. c #D35201",
"q. c #D55D01",
"w. c #C66F00",
"e. c #D66301",
"r. c #D86900",
"t. c #C37C00",
"y. c #DA7300",
"u. c #C56713",
"i. c #817B6D",
"p. c #AE8101",
"a. c #B18402",
"s. c #A78D13",
"d. c #AC9214",
"f. c #A68D25",
"g. c #BC8626",
"h. c #BF942D",
"j. c #B38F35",
"k. c #B69136",
"l. c #BD9634",
"z. c #BA9639",
"x. c #C58101",
"c. c #CC8500",
"v. c #D08700",
"b. c #D38A01",
"n. c #DA8E00",
"m. c #D38F09",
"M. c #DC9100",
"N. c #D8970F",
"B. c #CD8E12",
"V. c #D38F11",
"C. c #CB921E",
"Z. c #E68000",
"A. c #E19503",
"S. c #ED9E01",
"D. c #F09C00",
"F. c #D0AF0B",
"G. c #D7B103",
"H. c #DCB503",
"J. c #D6B40A",
"K. c #D9B51F",
"L. c #E9A20C",
"P. c #F6A300",
"I. c #F9A600",
"U. c #FEAA01",
"Y. c #E4A315",
"T. c #D6B320",
"R. c #F2B437",
"E. c #EEC704",
"W. c #F1CA03",
"Q. c #FCD301",
"!. c #EFC915",
"~. c #FBCF1B",
"^. c #FCD01B",
"/. c #EFC524",
"(. c #988054",
"). c #AF8A41",
"_. c #A5916D",
"`. c #A9946E",
"'. c #AD996E",
"]. c #AF9971",
"[. c #B39C73",
"{. c #B7A075",
"}. c #BDA375",
"|. c #C39B46",
" X c #C8A04E",
".X c #D9B46B",
"XX c #EFC97E",
"oX c #8B8B8B",
"OX c #929292",
"+X c #9D9D9C",
"@X c #AFA38A",
"#X c #A2A2A1",
"$X c #A8A8A6",
"%X c #ACACAB",
"&X c #B4B4B3",
"*X c #B9B9B7",
"=X c #BBBBBA",
"-X c #D4BB8B",
";X c #DDC391",
":X c #D6C199",
">X c #E1C693",
",X c #E5CA95",
"<X c #EFD198",
"1X c #C1C1BF",
"2X c #CBCBCA",
"3X c #D6D6D4",
"4X c #E7DBC2",
"5X c #E2E2E0",
"6X c #EEEEEC",
"7X c None",
/* pixels */
"7X7X7X7X7X7X7X7X7X7X7X7X7X7X7X7X7X7X7X7X7X7X7X7X7X7X7X7X7X7X7X7X",
"7X7X7X7X7X7X7X7X7X7X7X7X7X7X7X7X7X7X7X7X7X7X7X7X7X7X7X7X7X7X7X7X",
"7X7X7X7X7X7X7X7X7X7X7X7X7X7X7X7X7X7X7X7X7X7X7X7X7X7X7X7X7X7X7X7X",
"7X7X7X7X7X7X7X7X7X7X7X7X7X7X7X7X7X7X7X7X7X7X7X7X7X7X7X7X7X7X7X7X",
"7X7X7X7X7X7X7X7X7X7X7X7X7X7X7X7X7X7X7X7X7X7X7X7X7X7X7X7X7X7X7X7X",
"7X7X7X7X7X7X7X7X7X7X7X7X7X7X7X7X7X7X7X7X7X7X7X7X7X7X7X7X7X7X7X7X",
"7X7X7X7X7X7X7X7X7X7X7X7X7X7X7X# n 7X7X7X7X7X7X7X7X7X7X7X7X7X7X7X",
"7X7X7X7X7X7X7X7X7X7X7X7X7X7X7XV V K 7X7X7X7X7X7X7X7X7X7X7X7X7X7X",
"7X7X7X7X7X7X7X7X7X7X7X7X7X7XS P C D 7X7X7X7X7X7X7X7X7X7X7X7X7X7X",
"7X7X7X7X7X7X7X7X7X7X7X7X7X7XG J B M 7X7X7X7X7X7X7X7X7X7X7X7X7X7X",
"7X7X7X7X7X7X7X7X7X7X7X7X_ ~ U ~ H ; ~ _ 7X7X7X7X7X7X7X7X7X7X7X7X",
"7X7X7X7X7X7X7X7X7X7X7X&.%.M.c.t.t.c.M.= ] 7X7X7X7X7X7X7X7X7X7X7X",
"7X7X7X7X7X7X7X7X7X7X7X[ ,.I.U.U.U.U.U.>.#.7X7X7X7X7X7X7X7X7X7X7X",
"7X7X7X7X7X7X7X7X7X7X' % & Z Z A D Z F m # ` 7X7X7X7X7X7X7X7X7X7X",
"7X7X7X7X7X7X7X7X7X7X$.w.% L S S L V I V *.#.7X7X7X7X7X7X7X7X7X7X",
"7X7X7X7X7X7Xn $ 7X7XY b.D.q.e.r.0.y.0.Z.A.Y 7X7X7X@ 7X7X7X7X7X7X",
"7X7X7X7X7XU u.{ 7X$.0 3.}._.`.{._.[.]._.g.q $.7X#.1.' 7X7X7X7X7X",
"7X7X7X7X7X$.|.B.7X$.9 (.=XoXOX&XoX$X#XOX}.9 $.7X;.9.n.* 7X7X7X7X",
"7X7X7X7X= M. XA.o X.7 _.3X+X$X2X+X1X&X#X:X> @.+ X.).U.9 7X7X7X7X",
"7X7X7X7X9 U.B.c.o ( 0 @X6X%X*X5X%X3X2X&X4XU ( + R 2.U.| 7X7X7X7X",
"7X7X7X7X@.'.b ;.o Q S..X<X-X-X,X-X>X;X-XXXD...+ E z i.V.7X7X7X7X",
"7X7X7X7Xm.v   ) o r c.c.t.Y : : : : q >.t.t.E + w X . R.U 7X7X7X",
"7X7X7X7Xc.C.5.| 1 | >.>.$.U 0 0 9 9 q / $.%./ j 7 f 4.S.7X7X7X7X",
"7X7X7X7X7Xi h 1 e $.t.:.d p.a  .t t =.a a.x.$.0 O 2 6 7X7X7X7X7X",
"7X7X7Xc.M.x.-.@.U $.c.x F.d.g H.j G.o.s.F.m.>.0 0 ^ $.x.n.7X7X7X",
"7X7X7XU.v.,.,.n.| $.v.8.W.k E.+.d.J.c Q.l N.%.q / %.>.<.U.v.7X7X",
"7X7Xc.U.P.P.P.I.$.$.b.!.O.d.J.x Q.l J.d.O.Y.%.q $.P.P.P.U.M.7X7X",
"7X7XT ^ / ^ ^ / q $.v./.7.~.f.K.T.f.^.6./.L.%.0 0 / ^ ^ ^ / 7X7X",
"7X7Xw 8 8 8 8 8 w $.c.h.z.z.k.j.j.j.k.k.l.A.%.7 , 8 8 8 8 8 7X7X",
"7X7X+ + + + + + 1 ^ $.s y y < < - < < y p %.! 4 + + + + + + 7X7X",
"7X7X+ + + + + + 7X7X7X7X7X7X7X7X7X7X7X7X7X7X7X7X+ + + + + + 7X7X",
"7X7X7X7X7X7X7X7X7X7X7X7X7X7X7X7X7X7X7X7X7X7X7X7X7X7X7X7X7X7X7X7X"
};
